<svg xmlns="http://www.w3.org/2000/svg" width="324.916" height="223.379" viewBox="0 0 324.916 223.379">
  <g id="email" transform="translate(0 -80)">
    <g id="Group_22" data-name="Group 22" transform="translate(215.378 121.183)">
      <g id="Group_21" data-name="Group 21">
        <path id="Path_46" data-name="Path 46" d="M339.392,217.068l109.537,69.248V144.9Z" transform="translate(-339.392 -144.896)" fill="#fff"/>
      </g>
    </g>
    <g id="Group_24" data-name="Group 24" transform="translate(0 121.183)">
      <g id="Group_23" data-name="Group 23">
        <path id="Path_47" data-name="Path 47" d="M0,144.9V286.315l109.537-69.248Z" transform="translate(0 -144.896)" fill="#fff"/>
      </g>
    </g>
    <g id="Group_26" data-name="Group 26" transform="translate(0.609 80)">
      <g id="Group_25" data-name="Group 25">
        <path id="Path_48" data-name="Path 48" d="M304.959,80H20.658A20.055,20.055,0,0,0,.96,97.281L162.809,203.915,324.657,97.281A20.055,20.055,0,0,0,304.959,80Z" transform="translate(-0.96 -80)" fill="#fff"/>
      </g>
    </g>
    <g id="Group_28" data-name="Group 28" transform="translate(0.65 205.6)">
      <g id="Group_27" data-name="Group 27">
        <path id="Path_49" data-name="Path 49" d="M197.151,277.94l-28.735,18.926a10.2,10.2,0,0,1-11.169,0L128.513,277.92,1.024,358.56A20.023,20.023,0,0,0,20.681,375.7h284.3A20.023,20.023,0,0,0,324.64,358.56Z" transform="translate(-1.024 -277.92)" fill="#fff"/>
      </g>
    </g>
  </g>
</svg>
